<?xml version="1.0" encoding="UTF-8" standalone="no"?>
<!-- Created with Inkscape (http://www.inkscape.org/) -->

<svg
   xmlns:dc="http://purl.org/dc/elements/1.1/"
   xmlns:cc="http://creativecommons.org/ns#"
   xmlns:rdf="http://www.w3.org/1999/02/22-rdf-syntax-ns#"
   xmlns:svg="http://www.w3.org/2000/svg"
   xmlns="http://www.w3.org/2000/svg"
   xmlns:sodipodi="http://sodipodi.sourceforge.net/DTD/sodipodi-0.dtd"
   xmlns:inkscape="http://www.inkscape.org/namespaces/inkscape"
   width="86mm"
   height="11.414mm"
   viewBox="0 0 86 11.414"
   version="1.1"
   id="svg8"
   inkscape:version="0.92.3 (2405546, 2018-03-11)"
   sodipodi:docname="logo.svg">
  <defs
     id="defs2" />
  <sodipodi:namedview
     id="base"
     pagecolor="#4f495a"
     bordercolor="#666666"
     borderopacity="1.0"
     inkscape:pageopacity="1"
     inkscape:pageshadow="2"
     inkscape:zoom="14"
     inkscape:cx="156.82828"
     inkscape:cy="19.98842"
     inkscape:document-units="mm"
     inkscape:current-layer="layer1"
     showgrid="true"
     inkscape:window-width="1920"
     inkscape:window-height="1001"
     inkscape:window-x="-9"
     inkscape:window-y="-9"
     inkscape:window-maximized="1" />
  <metadata
     id="metadata5">
    <rdf:RDF>
      <cc:Work
         rdf:about="">
        <dc:format>image/svg+xml</dc:format>
        <dc:type
           rdf:resource="http://purl.org/dc/dcmitype/StillImage" />
        <dc:title></dc:title>
      </cc:Work>
    </rdf:RDF>
  </metadata>
  <g
     inkscape:label="Calque 1"
     inkscape:groupmode="layer"
     id="layer1"
     transform="translate(0,-285.586)">
    <g
       aria-label="SmartPurchase"
       transform="matrix(0.26541913,0,-0.0348262,0.26541913,-28.436842,145.73742)"
       style="font-style:normal;font-weight:normal;font-size:44px;line-height:1.25;font-family:sans-serif;letter-spacing:0px;word-spacing:0px;fill:#dedede;fill-opacity:1;stroke:none"
       id="flowRoot815">
      <path
         d="m 198.452,564.65953 q -3.168,0 -5.632,-1.056 -2.42,-1.056 -4.708,-3.3 -0.528,-0.44 -0.528,-1.056 0,-0.528 0.396,-0.968 0.44,-0.44 0.968,-0.44 0.528,0 0.968,0.44 3.432,3.784 8.58,3.784 3.168,0 5.236,-1.496 2.112,-1.496 2.112,-3.916 0,-1.892 -1.056,-3.124 -1.012,-1.276 -2.684,-2.068 -1.672,-0.792 -4.268,-1.628 -2.816,-0.836 -4.752,-1.848 -1.892,-1.012 -3.08,-2.684 -1.188,-1.716 -1.188,-4.312 0,-2.332 1.232,-4.136 1.276,-1.804 3.52,-2.816 2.288,-1.056 5.236,-1.056 2.684,0 5.016,0.924 2.376,0.88 3.784,2.552 0.66,0.748 0.66,1.276 0,0.484 -0.44,0.924 -0.44,0.396 -0.968,0.396 -0.44,0 -0.748,-0.308 -1.188,-1.408 -3.168,-2.288 -1.98,-0.88 -4.136,-0.88 -3.212,0 -5.236,1.452 -2.024,1.408 -2.024,3.872 0,2.552 1.936,3.916 1.936,1.364 5.544,2.508 3.124,0.924 5.104,1.892 1.98,0.968 3.212,2.772 1.276,1.76 1.276,4.664 0,2.244 -1.32,4.092 -1.276,1.804 -3.608,2.86 -2.288,1.056 -5.236,1.056 z"
         style="font-style:normal;font-variant:normal;font-weight:normal;font-stretch:normal;font-family:Quicksand;-inkscape-font-specification:Quicksand;fill:#dedede;fill-opacity:1"
         id="path842"
         inkscape:connector-curvature="0" />
      <path
         d="m 239.746,541.55953 q 3.96,0 5.808,2.464 1.892,2.42 1.892,6.424 v 12.452 q 0,0.572 -0.396,0.968 -0.352,0.352 -0.924,0.352 -0.572,0 -0.968,-0.352 -0.352,-0.396 -0.352,-0.968 v -12.32 q 0,-2.904 -1.408,-4.708 -1.364,-1.848 -4.268,-1.848 -1.848,0 -3.52,0.88 -1.628,0.88 -2.64,2.42 -1.012,1.496 -1.012,3.256 v 12.32 q 0,0.572 -0.396,0.968 -0.352,0.352 -0.924,0.352 -0.572,0 -0.968,-0.352 -0.352,-0.396 -0.352,-0.968 v -12.452 q 0,-2.86 -1.32,-4.62 -1.32,-1.804 -4.136,-1.804 -1.804,0 -3.432,0.88 -1.584,0.88 -2.596,2.376 -0.968,1.452 -0.968,3.168 v 12.452 q 0,0.572 -0.396,0.968 -0.352,0.352 -0.924,0.352 -0.572,0 -0.968,-0.352 -0.352,-0.396 -0.352,-0.968 v -19.712 q 0,-0.572 0.352,-0.924 0.396,-0.396 0.968,-0.396 0.572,0 0.924,0.396 0.396,0.352 0.396,0.924 v 2.552 q 1.188,-1.804 3.212,-2.992 2.024,-1.188 4.268,-1.188 2.552,0 4.4,1.232 1.848,1.232 2.64,3.608 0.924,-1.936 3.388,-3.388 2.464,-1.452 4.972,-1.452 z"
         style="font-style:normal;font-variant:normal;font-weight:normal;font-stretch:normal;font-family:Quicksand;-inkscape-font-specification:Quicksand;fill:#dedede;fill-opacity:1"
         id="path844"
         inkscape:connector-curvature="0" />
      <path
         d="m 272.61881,541.73553 q 0.572,0 0.924,0.396 0.396,0.396 0.396,0.968 v 19.8 q 0,0.572 -0.396,0.968 -0.352,0.352 -0.924,0.352 -0.572,0 -0.968,-0.352 -0.352,-0.396 -0.352,-0.968 v -2.948 q -1.1,1.98 -3.3,3.344 -2.2,1.364 -4.796,1.364 -2.948,0 -5.324,-1.54 -2.332,-1.54 -3.696,-4.224 -1.32,-2.684 -1.32,-6.028 0,-3.344 1.364,-5.984 1.364,-2.684 3.696,-4.18 2.376,-1.496 5.236,-1.496 2.64,0 4.84,1.276 2.2,1.276 3.3,3.344 v -2.728 q 0,-0.572 0.352,-0.968 0.396,-0.396 0.968,-0.396 z m -9.152,20.46 q 2.288,0 4.092,-1.188 1.848,-1.232 2.86,-3.344 1.056,-2.156 1.056,-4.796 0,-2.552 -1.056,-4.664 -1.012,-2.112 -2.86,-3.3 -1.804,-1.232 -4.092,-1.232 -2.288,0 -4.136,1.188 -1.804,1.188 -2.86,3.3 -1.012,2.068 -1.012,4.708 0,2.64 1.012,4.796 1.012,2.112 2.816,3.344 1.848,1.188 4.18,1.188 z"
         style="font-style:normal;font-variant:normal;font-weight:normal;font-stretch:normal;font-family:Quicksand;-inkscape-font-specification:Quicksand;fill:#dedede;fill-opacity:1"
         id="path846"
         inkscape:connector-curvature="0" />
      <path
         d="m 291.34356,541.20753 q 0.88,0 1.584,0.352 0.704,0.352 0.704,1.056 0,0.616 -0.352,1.012 -0.352,0.352 -0.836,0.352 -0.22,0 -0.88,-0.22 -0.616,-0.22 -1.188,-0.22 -1.628,0 -3.256,1.276 -1.584,1.232 -2.64,3.212 -1.012,1.98 -1.012,4.004 v 10.868 q 0,0.572 -0.396,0.968 -0.352,0.352 -0.924,0.352 -0.572,0 -0.968,-0.352 -0.352,-0.396 -0.352,-0.968 v -19.712 q 0,-0.572 0.352,-0.924 0.396,-0.396 0.968,-0.396 0.572,0 0.924,0.396 0.396,0.352 0.396,0.924 v 3.872 q 1.012,-2.508 3.036,-4.136 2.068,-1.672 4.84,-1.716 z"
         style="font-style:normal;font-variant:normal;font-weight:normal;font-stretch:normal;font-family:Quicksand;-inkscape-font-specification:Quicksand;fill:#dedede;fill-opacity:1"
         id="path848"
         inkscape:connector-curvature="0" />
      <path
         d="m 302.15725,544.28753 v 14.74 q 0,1.672 0.616,2.288 0.616,0.572 1.628,0.572 0.264,0 0.66,-0.088 0.396,-0.132 0.616,-0.132 0.396,0 0.66,0.352 0.308,0.308 0.308,0.748 0,0.616 -0.704,1.056 -0.704,0.396 -1.672,0.396 -1.188,0 -2.112,-0.22 -0.924,-0.22 -1.804,-1.32 -0.836,-1.1 -0.836,-3.52 v -14.872 h -3.212 q -0.528,0 -0.924,-0.352 -0.352,-0.352 -0.352,-0.88 0,-0.528 0.352,-0.88 0.396,-0.352 0.924,-0.352 h 3.212 v -4.884 q 0,-0.572 0.352,-0.924 0.396,-0.396 0.968,-0.396 0.572,0 0.924,0.396 0.396,0.352 0.396,0.924 v 4.884 h 4.4 q 0.484,0 0.836,0.396 0.396,0.396 0.396,0.88 0,0.528 -0.352,0.88 -0.352,0.308 -0.88,0.308 z"
         style="font-style:normal;font-variant:normal;font-weight:normal;font-stretch:normal;font-family:Quicksand;-inkscape-font-specification:Quicksand;fill:#dedede;fill-opacity:1"
         id="path850"
         inkscape:connector-curvature="0" />
      <path
         d="m 325.11838,533.41953 q 2.41999,0 4.35599,1.144 1.936,1.1 2.992,3.124 1.1,1.98 1.1,4.488 0,2.508 -1.1,4.576 -1.056,2.068 -2.992,3.256 -1.936,1.188 -4.35599,1.188 h -9.10801 v 11.704 q 0,0.572 -0.396,0.968 -0.35199,0.352 -0.92399,0.352 -0.572,0 -0.96801,-0.352 -0.35199,-0.396 -0.35199,-0.968 v -28.16 q 0,-0.572 0.35199,-0.924 0.39601,-0.396 0.96801,-0.396 z m 0,15.224 q 2.55199,0 4.13599,-1.848 1.584,-1.848 1.584,-4.62 0,-2.728 -1.584,-4.444 -1.584,-1.716 -4.13599,-1.716 h -9.10801 v 12.628 z"
         style="font-style:normal;font-variant:normal;font-weight:normal;font-stretch:normal;font-family:Quicksand;-inkscape-font-specification:Quicksand;fill:#dedede;fill-opacity:1"
         id="path852"
         inkscape:connector-curvature="0" />
      <path
         d="m 355.4715,541.86753 q 0.572,0 0.924,0.396 0.396,0.352 0.396,0.924 v 12.408 q 0,4.312 -2.42,6.644 -2.42,2.288 -6.688,2.288 -4.224,0 -6.644,-2.288 -2.376,-2.332 -2.376,-6.644 v -12.408 q 0,-0.572 0.352,-0.924 0.396,-0.396 0.968,-0.396 0.572,0 0.924,0.396 0.396,0.352 0.396,0.924 v 12.408 q 0,3.168 1.672,4.84 1.672,1.628 4.708,1.628 3.08,0 4.752,-1.628 1.716,-1.672 1.716,-4.84 v -12.408 q 0,-0.572 0.352,-0.924 0.396,-0.396 0.968,-0.396 z"
         style="font-style:normal;font-variant:normal;font-weight:normal;font-stretch:normal;font-family:Quicksand;-inkscape-font-specification:Quicksand;fill:#dedede;fill-opacity:1"
         id="path854"
         inkscape:connector-curvature="0" />
      <path
         d="m 374.18731,541.20753 q 0.88,0 1.584,0.352 0.704,0.352 0.704,1.056 0,0.616 -0.352,1.012 -0.352,0.352 -0.836,0.352 -0.22,0 -0.88,-0.22 -0.616,-0.22 -1.188,-0.22 -1.628,0 -3.256,1.276 -1.584,1.232 -2.64,3.212 -1.012,1.98 -1.012,4.004 v 10.868 q 0,0.572 -0.396,0.968 -0.352,0.352 -0.924,0.352 -0.572,0 -0.968,-0.352 -0.352,-0.396 -0.352,-0.968 v -19.712 q 0,-0.572 0.352,-0.924 0.396,-0.396 0.968,-0.396 0.572,0 0.924,0.396 0.396,0.352 0.396,0.924 v 3.872 q 1.012,-2.508 3.036,-4.136 2.068,-1.672 4.84,-1.716 z"
         style="font-style:normal;font-variant:normal;font-weight:normal;font-stretch:normal;font-family:Quicksand;-inkscape-font-specification:Quicksand;fill:#dedede;fill-opacity:1"
         id="path856"
         inkscape:connector-curvature="0" />
      <path
         d="m 389.37969,541.20753 q 2.068,0 3.828,0.484 1.804,0.44 2.86,1.232 1.1,0.792 1.1,1.716 0,0.484 -0.352,0.88 -0.308,0.396 -0.792,0.396 -0.44,0 -0.748,-0.176 -0.264,-0.176 -0.616,-0.528 -0.572,-0.572 -1.1,-0.836 -0.66,-0.308 -1.76,-0.484 -1.056,-0.22 -2.288,-0.22 -2.42,0 -4.444,1.232 -1.98,1.232 -3.124,3.344 -1.144,2.112 -1.144,4.664 0,2.64 1.1,4.752 1.1,2.112 3.036,3.344 1.98,1.188 4.488,1.188 1.584,0 2.508,-0.264 0.968,-0.264 1.892,-0.748 0.308,-0.176 1.056,-0.792 0.352,-0.308 0.616,-0.44 0.264,-0.176 0.572,-0.176 0.528,0 0.836,0.352 0.308,0.308 0.308,0.836 0,0.748 -1.056,1.628 -1.056,0.836 -2.904,1.452 -1.848,0.616 -4.092,0.616 -3.212,0 -5.72,-1.496 -2.508,-1.54 -3.916,-4.224 -1.364,-2.684 -1.364,-6.028 0,-3.212 1.408,-5.852 1.408,-2.684 3.96,-4.268 2.552,-1.584 5.852,-1.584 z"
         style="font-style:normal;font-variant:normal;font-weight:normal;font-stretch:normal;font-family:Quicksand;-inkscape-font-specification:Quicksand;fill:#dedede;fill-opacity:1"
         id="path858"
         inkscape:connector-curvature="0" />
      <path
         d="m 412.50925,541.55953 q 3.96,0 5.896,2.508 1.936,2.464 1.936,6.38 v 12.452 q 0,0.572 -0.396,0.968 -0.352,0.352 -0.924,0.352 -0.572,0 -0.968,-0.352 -0.352,-0.396 -0.352,-0.968 v -12.452 q 0,-2.86 -1.364,-4.62 -1.364,-1.804 -4.268,-1.804 -1.848,0 -3.52,0.88 -1.628,0.88 -2.64,2.376 -1.012,1.452 -1.012,3.168 v 12.452 q 0,0.572 -0.396,0.968 -0.352,0.352 -0.924,0.352 -0.572,0 -0.968,-0.352 -0.352,-0.396 -0.352,-0.968 v -29.92 q 0,-0.572 0.352,-0.924 0.396,-0.396 0.968,-0.396 0.572,0 0.924,0.396 0.396,0.352 0.396,0.924 v 12.892 q 1.188,-1.892 3.3,-3.08 2.112,-1.232 4.312,-1.232 z"
         style="font-style:normal;font-variant:normal;font-weight:normal;font-stretch:normal;font-family:Quicksand;-inkscape-font-specification:Quicksand;fill:#dedede;fill-opacity:1"
         id="path860"
         inkscape:connector-curvature="0" />
      <path
         d="m 445.52506,541.73553 q 0.572,0 0.924,0.396 0.396,0.396 0.396,0.968 v 19.8 q 0,0.572 -0.396,0.968 -0.352,0.352 -0.924,0.352 -0.572,0 -0.968,-0.352 -0.352,-0.396 -0.352,-0.968 v -2.948 q -1.1,1.98 -3.3,3.344 -2.2,1.364 -4.796,1.364 -2.948,0 -5.324,-1.54 -2.332,-1.54 -3.696,-4.224 -1.32,-2.684 -1.32,-6.028 0,-3.344 1.364,-5.984 1.364,-2.684 3.696,-4.18 2.376,-1.496 5.236,-1.496 2.64,0 4.84,1.276 2.2,1.276 3.3,3.344 v -2.728 q 0,-0.572 0.352,-0.968 0.396,-0.396 0.968,-0.396 z m -9.152,20.46 q 2.288,0 4.092,-1.188 1.848,-1.232 2.86,-3.344 1.056,-2.156 1.056,-4.796 0,-2.552 -1.056,-4.664 -1.012,-2.112 -2.86,-3.3 -1.804,-1.232 -4.092,-1.232 -2.288,0 -4.136,1.188 -1.804,1.188 -2.86,3.3 -1.012,2.068 -1.012,4.708 0,2.64 1.012,4.796 1.012,2.112 2.816,3.344 1.848,1.188 4.18,1.188 z"
         style="font-style:normal;font-variant:normal;font-weight:normal;font-stretch:normal;font-family:Quicksand;-inkscape-font-specification:Quicksand;fill:#dedede;fill-opacity:1"
         id="path862"
         inkscape:connector-curvature="0" />
      <path
         d="m 452.45781,560.65553 q -0.352,-0.572 -0.352,-0.968 0,-0.572 0.572,-0.88 0.264,-0.264 0.704,-0.264 0.528,0 0.968,0.44 2.596,3.432 6.908,3.432 2.112,0 3.652,-0.968 1.584,-1.012 1.584,-2.904 0,-1.848 -1.452,-2.772 -1.452,-0.924 -4.048,-1.584 -3.652,-0.924 -5.72,-2.376 -2.068,-1.496 -2.068,-4.356 0,-1.804 1.012,-3.212 1.012,-1.452 2.728,-2.244 1.76,-0.792 3.96,-0.792 1.892,0 3.784,0.748 1.936,0.704 3.3,2.288 0.396,0.308 0.396,0.88 0,0.528 -0.44,0.924 -0.308,0.264 -0.792,0.264 -0.44,0 -0.792,-0.352 -1.056,-1.188 -2.508,-1.804 -1.452,-0.616 -3.124,-0.616 -2.068,0 -3.564,0.968 -1.452,0.968 -1.452,2.904 0.088,1.76 1.584,2.684 1.54,0.924 4.488,1.672 2.288,0.572 3.784,1.276 1.496,0.704 2.42,1.98 0.968,1.276 0.968,3.388 0,2.86 -2.288,4.576 -2.288,1.672 -5.676,1.672 -5.368,0 -8.536,-4.004 z"
         style="font-style:normal;font-variant:normal;font-weight:normal;font-stretch:normal;font-family:Quicksand;-inkscape-font-specification:Quicksand;fill:#dedede;fill-opacity:1"
         id="path864"
         inkscape:connector-curvature="0" />
      <path
         d="m 493.36681,551.67953 q 0,0.528 -0.396,0.924 -0.396,0.352 -0.924,0.352 h -16.632 q 0,2.64 1.056,4.752 1.1,2.068 3.08,3.3 2.024,1.188 4.752,1.188 2.112,0 3.784,-0.88 1.672,-0.88 2.684,-2.244 0.484,-0.396 0.924,-0.396 0.44,0 0.792,0.352 0.352,0.352 0.352,0.792 0,0.484 -0.44,0.924 -1.408,1.716 -3.564,2.816 -2.112,1.1 -4.488,1.1 -3.388,0 -5.984,-1.452 -2.596,-1.452 -4.048,-4.048 -1.452,-2.64 -1.452,-6.072 0,-3.608 1.408,-6.292 1.452,-2.728 3.828,-4.136 2.376,-1.452 5.06,-1.452 2.64,0 4.928,1.232 2.332,1.232 3.784,3.608 1.452,2.376 1.496,5.632 z m -10.208,-7.92 q -2.552,0 -4.752,1.76 -2.156,1.76 -2.772,5.06 h 15.004 v -0.352 q -0.22,-1.98 -1.32,-3.432 -1.1,-1.496 -2.772,-2.244 -1.628,-0.792 -3.388,-0.792 z"
         style="font-style:normal;font-variant:normal;font-weight:normal;font-stretch:normal;font-family:Quicksand;-inkscape-font-specification:Quicksand;fill:#dedede;fill-opacity:1"
         id="path866"
         inkscape:connector-curvature="0" />
    </g>
    <path
       style="fill:none;stroke:#f3b9b9;stroke-width:0.2658371;stroke-linecap:round;stroke-linejoin:miter;stroke-miterlimit:4;stroke-dasharray:none;stroke-opacity:1"
       d="M 0.15982532,296.89883 H 85.890202"
       id="path823"
       inkscape:connector-curvature="0" />
    <path
       style="fill:none;stroke:#f3b9b9;stroke-width:0.2658371;stroke-linecap:round;stroke-linejoin:miter;stroke-miterlimit:4;stroke-dasharray:none;stroke-opacity:1"
       d="M 0.15982532,285.75116 H 85.890202"
       id="path823-3"
       inkscape:connector-curvature="0" />
  </g>
</svg>
